HIERARCHY
ROOT Hips
{
    OFFSET   0.000000   0.000000   0.000000
    CHANNELS 6 Xposition Yposition Zposition Zrotation Xrotation Yrotation
    JOINT Chest
    {
        OFFSET   0.000000   8.007230   0.000000
        CHANNELS 3 Zrotation Xrotation Yrotation
        JOINT Chest2
        {
            OFFSET   0.000000  22.077100   0.000000
            CHANNELS 3 Zrotation Xrotation Yrotation
            JOINT Neck
            {
                OFFSET   0.000000  23.254700   0.000000
                CHANNELS 3 Zrotation Xrotation Yrotation
                JOINT Head
                {
                    OFFSET   0.000010  14.370000   1.956610
                    CHANNELS 3 Zrotation Xrotation Yrotation
                    End Site
                    {
                        OFFSET   0.000000  19.566000   0.000000
                    }
                }
            }
            JOINT LeftCollar
            {
                OFFSET   3.911900  19.017000  -0.467063
                CHANNELS 3 Zrotation Xrotation Yrotation
                JOINT LeftShoulder
                {
                    OFFSET  10.383700   0.000000   0.000000
                    CHANNELS 3 Zrotation Xrotation Yrotation
                    JOINT LeftElbow
                    {
                        OFFSET  26.662100   0.001671   0.000522
                        CHANNELS 3 Zrotation Xrotation Yrotation
                        JOINT LeftWrist
                        {
                            OFFSET  28.869000   0.000037  -0.000114
                            CHANNELS 3 Zrotation Xrotation Yrotation
                            JOINT LeftFinger0
                            {
                                OFFSET   2.044650  -2.323450   3.252850
                                CHANNELS 3 Zrotation Xrotation Yrotation
                                JOINT LeftFinger01
                                {
                                    OFFSET   3.088140   0.000000   0.000000
                                    CHANNELS 3 Zrotation Xrotation Yrotation
                                    JOINT LeftFinger02
                                    {
                                        OFFSET   2.639460   0.000000   0.000000
                                        CHANNELS 3 Zrotation Xrotation Yrotation
                                        End Site
                                        {
                                            OFFSET   2.582190   0.000000   0.000000
                                        }
                                    }
                                }
                            }
                            JOINT LeftFinger1
                            {
                                OFFSET   8.364480   0.000000   3.252850
                                CHANNELS 3 Zrotation Xrotation Yrotation
                                JOINT LeftFinger11
                                {
                                    OFFSET   4.646930   0.000000   0.000000
                                    CHANNELS 3 Zrotation Xrotation Yrotation
                                    JOINT LeftFinger12
                                    {
                                        OFFSET   2.323470   0.000000   0.000000
                                        CHANNELS 3 Zrotation Xrotation Yrotation
                                        End Site
                                        {
                                            OFFSET   2.273050   0.000000   0.000000
                                        }
                                    }
                                }
                            }
                            JOINT LeftFinger2
                            {
                                OFFSET   8.364490   0.000016   1.078090
                                CHANNELS 3 Zrotation Xrotation Yrotation
                                JOINT LeftFinger21
                                {
                                    OFFSET   5.111620   0.000000   0.000000
                                    CHANNELS 3 Zrotation Xrotation Yrotation
                                    JOINT LeftFinger22
                                    {
                                        OFFSET   2.788150   0.000013   0.000000
                                        CHANNELS 3 Zrotation Xrotation Yrotation
                                        End Site
                                        {
                                            OFFSET   2.727660   0.000000   0.000000
                                        }
                                    }
                                }
                            }
                            JOINT LeftFinger3
                            {
                                OFFSET   7.899780   0.000016  -1.078090
                                CHANNELS 3 Zrotation Xrotation Yrotation
                                JOINT LeftFinger31
                                {
                                    OFFSET   4.646930   0.000000   0.000000
                                    CHANNELS 3 Zrotation Xrotation Yrotation
                                    JOINT LeftFinger32
                                    {
                                        OFFSET   2.323470   0.000000   0.000000
                                        CHANNELS 3 Zrotation Xrotation Yrotation
                                        End Site
                                        {
                                            OFFSET   2.273050   0.000000   0.000000
                                        }
                                    }
                                }
                            }
                            JOINT LeftFinger4
                            {
                                OFFSET   7.435080   0.000000  -3.252850
                                CHANNELS 3 Zrotation Xrotation Yrotation
                                JOINT LeftFinger41
                                {
                                    OFFSET   3.717550   0.000000   0.000000
                                    CHANNELS 3 Zrotation Xrotation Yrotation
                                    JOINT LeftFinger42
                                    {
                                        OFFSET   1.858760   0.000000   0.000000
                                        CHANNELS 3 Zrotation Xrotation Yrotation
                                        End Site
                                        {
                                            OFFSET   1.818440   0.000000   0.000000
                                        }
                                    }
                                }
                            }
                        }
                    }
                }
            }
            JOINT RightCollar
            {
                OFFSET  -3.911900  19.017000  -0.467064
                CHANNELS 3 Zrotation Xrotation Yrotation
                JOINT RightShoulder
                {
                    OFFSET -10.383700   0.000000   0.000000
                    CHANNELS 3 Zrotation Xrotation Yrotation
                    JOINT RightElbow
                    {
                        OFFSET -26.662100   0.001633   0.000260
                        CHANNELS 3 Zrotation Xrotation Yrotation
                        JOINT RightWrist
                        {
                            OFFSET -28.869000  -0.000045  -0.000080
                            CHANNELS 3 Zrotation Xrotation Yrotation
                            JOINT RightFinger0
                            {
                                OFFSET  -2.044660  -2.323490   3.252850
                                CHANNELS 3 Zrotation Xrotation Yrotation
                                JOINT RightFinger01
                                {
                                    OFFSET  -3.088140   0.000000   0.000000
                                    CHANNELS 3 Zrotation Xrotation Yrotation
                                    JOINT RightFinger02
                                    {
                                        OFFSET  -2.639450   0.000000   0.000000
                                        CHANNELS 3 Zrotation Xrotation Yrotation
                                        End Site
                                        {
                                            OFFSET  -2.582190   0.000000   0.000000
                                        }
                                    }
                                }
                            }
                            JOINT RightFinger1
                            {
                                OFFSET  -8.364480   0.000000   3.252850
                                CHANNELS 3 Zrotation Xrotation Yrotation
                                JOINT RightFinger11
                                {
                                    OFFSET  -4.646920   0.000000   0.000000
                                    CHANNELS 3 Zrotation Xrotation Yrotation
                                    JOINT RightFinger12
                                    {
                                        OFFSET  -2.323470   0.000000   0.000000
                                        CHANNELS 3 Zrotation Xrotation Yrotation
                                        End Site
                                        {
                                            OFFSET  -2.273050   0.000000   0.000000
                                        }
                                    }
                                }
                            }
                            JOINT RightFinger2
                            {
                                OFFSET  -8.364480   0.000000   1.078090
                                CHANNELS 3 Zrotation Xrotation Yrotation
                                JOINT RightFinger21
                                {
                                    OFFSET  -5.111610   0.000000   0.000000
                                    CHANNELS 3 Zrotation Xrotation Yrotation
                                    JOINT RightFinger22
                                    {
                                        OFFSET  -2.788160   0.000000   0.000000
                                        CHANNELS 3 Zrotation Xrotation Yrotation
                                        End Site
                                        {
                                            OFFSET  -2.727660   0.000000   0.000000
                                        }
                                    }
                                }
                            }
                            JOINT RightFinger3
                            {
                                OFFSET  -7.899780   0.000000  -1.078090
                                CHANNELS 3 Zrotation Xrotation Yrotation
                                JOINT RightFinger31
                                {
                                    OFFSET  -4.646930   0.000000   0.000000
                                    CHANNELS 3 Zrotation Xrotation Yrotation
                                    JOINT RightFinger32
                                    {
                                        OFFSET  -2.323470   0.000000   0.000000
                                        CHANNELS 3 Zrotation Xrotation Yrotation
                                        End Site
                                        {
                                            OFFSET  -2.273050   0.000000   0.000000
                                        }
                                    }
                                }
                            }
                            JOINT RightFinger4
                            {
                                OFFSET  -7.435090   0.000000  -3.252850
                                CHANNELS 3 Zrotation Xrotation Yrotation
                                JOINT RightFinger41
                                {
                                    OFFSET  -3.717550   0.000000   0.000000
                                    CHANNELS 3 Zrotation Xrotation Yrotation
                                    JOINT RightFinger42
                                    {
                                        OFFSET  -1.858760   0.000000   0.000000
                                        CHANNELS 3 Zrotation Xrotation Yrotation
                                        End Site
                                        {
                                            OFFSET  -1.818440   0.000000   0.000000
                                        }
                                    }
                                }
                            }
                        }
                    }
                }
            }
        }
    }
    JOINT LeftHip
    {
        OFFSET   9.782990   0.000000   0.000000
        CHANNELS 3 Zrotation Xrotation Yrotation
        JOINT LeftKnee
        {
            OFFSET  -0.000063 -41.789100   0.001657
            CHANNELS 3 Zrotation Xrotation Yrotation
            JOINT LeftAnkle
            {
                OFFSET   0.000078 -41.133200  -0.000113
                CHANNELS 3 Zrotation Xrotation Yrotation
                JOINT LeftToe
                {
                    OFFSET   0.000000  -6.358970  14.674500
                    CHANNELS 3 Zrotation Xrotation Yrotation
                    End Site
                    {
                        OFFSET   0.000000   0.000000   3.913200
                    }
                }
            }
        }
    }
    JOINT RightHip
    {
        OFFSET  -9.782990   0.000000   0.000000
        CHANNELS 3 Zrotation Xrotation Yrotation
        JOINT RightKnee
        {
            OFFSET   0.000053 -41.789200   0.000277
            CHANNELS 3 Zrotation Xrotation Yrotation
            JOINT RightAnkle
            {
                OFFSET   0.000030 -41.133200  -0.000150
                CHANNELS 3 Zrotation Xrotation Yrotation
                JOINT RightToe
                {
                    OFFSET   0.000000  -6.358960  14.674500
                    CHANNELS 3 Zrotation Xrotation Yrotation
                    End Site
                    {
                        OFFSET   0.000000   0.000000   3.913200
                    }
                }
            }
        }
    }
}
MOTION
Frames: 4
Frame Time:   0.016667
 -0.658144  89.585200  -0.059047  -1.144890 -14.678600   7.239870   0.562016   8.101760   0.386612   1.084690  16.206600   0.702705  -4.809330  -0.628052  -0.058981  -7.902770  -1.246740   4.677800  -4.710500   0.443172  -0.162800 -58.310300   4.009340 -54.772500  10.577000 -25.416700 -120.073000  18.342000 -20.655500 -17.168300  36.484100  31.354600 -74.906800 -24.391700  -0.004414   0.000790  -7.195800  -0.001259   0.005240 -29.185500   2.439980  -4.362210 -23.956900   0.001266   0.000960 -16.769800  -0.000958   0.000948 -84.371400  -0.004152   0.000247 -84.371300   0.003414  -0.002783 -63.278500   0.000784   0.003050 -88.104900  -4.998500   0.165096 -88.045300   0.004248  -0.003920 -66.034000   0.004720   0.005785 -88.983900  -9.999880   0.180513 -110.000000   0.002227   0.003875 -80.000000  -0.001379  -0.003596   7.198970   0.571632   6.310440  70.950800  20.777900   0.966780  -2.905050  -3.332160  17.432500 -14.424200 -12.312400  -2.334560 -39.848800  21.341900  56.331400  20.514000  -0.014745  -0.019822   5.256990  -0.015255   0.000956  24.652800   3.727090   8.059050  20.385400   0.002184  -0.000687  14.269800   0.002193  -0.000480  28.382700   0.762043   1.411260  34.978400  -0.008724   0.002124  23.295600   0.002572   0.002264  27.641800   0.743998   1.420870  29.968000  -0.000251  -0.000697  19.958700  -0.001087   0.000118  33.313200   0.612734   0.933578  49.977300   0.000000   0.002509  33.284800   0.002500   0.005859   3.735090  14.469300   6.284030   1.743400   0.067389   6.923440  -2.687020  -1.004050  -0.068233  -0.000000   0.000000   0.000000   4.475600  14.613100  -3.652110  -0.008356   3.272140 -12.665000  -0.977854  -5.305080  -3.195640  -0.000000   0.000000   0.000000
 -0.638296  89.585500  -0.054641  -1.132340 -14.670800   7.269420   0.577480   8.106570   0.338979   1.123080  16.216100   0.603636  -4.809130  -0.650117  -0.058425  -7.899330  -1.290630   4.765710  -4.714450   0.429063  -0.099624 -58.095600   4.217620 -54.713300  10.290900 -25.571200 -120.166000  18.582600 -21.011700 -17.026100  36.663700  31.332900 -74.792300 -24.384300  -0.004841   0.000735  -7.192110  -0.000906   0.005248 -29.478800   2.145390  -3.786010 -24.177600   0.001293   0.000968 -16.924300  -0.000893   0.000958 -84.415000  -0.004181   0.000175 -84.415000   0.003426  -0.002779 -63.311200   0.000837   0.003049 -88.118000  -4.998490   0.163921 -88.125200   0.004251  -0.003888 -66.093900   0.004712   0.005767 -88.983900  -9.999880   0.180600 -110.000000   0.002199   0.003950 -80.000000  -0.001378  -0.003585   7.169660   0.562853   6.388830  71.006500  20.709900   0.950822  -2.917020  -3.289930  17.451900 -14.428900 -12.337000  -2.317870 -39.874100  21.338500  56.298900  20.478800  -0.015148  -0.018808   5.239410  -0.015377   0.001175  24.642500   3.727540   8.060450  20.377200   0.017027  -0.005581  14.264000   0.012355  -0.003998  28.383300   0.763997   1.415520  34.977800  -0.010512   0.003189  23.295200   0.002706   0.002699  27.651200   0.746080   1.425090  30.017700  -0.000687   0.000060  19.991800  -0.000097   0.000516  33.312900   0.612323   0.933900  49.976800   0.000000   0.002535  33.284500   0.002570   0.005889   3.722520  14.468300   6.286480   1.737020   0.055231   6.910770  -2.678590  -0.999201  -0.081768   0.000000   0.000000  -0.000000   4.461030  14.615900  -3.639400  -0.008495   3.270590 -12.670600  -0.970719  -5.312970  -3.226680   0.000000   0.000000   0.000000
 -0.621260  89.585800  -0.046898  -1.123720 -14.661900   7.283930   0.591932   8.104870   0.294485   1.158960  16.212400   0.511188  -4.811620  -0.668388  -0.057880  -7.900280  -1.326960   4.825220  -4.728770   0.423539  -0.038447 -58.414000   4.222330 -54.585800  10.148800 -25.574100 -120.303000  18.983500 -21.194600 -16.965700  37.712000  32.650000 -75.641700 -23.328000  -0.000500   0.001126  -6.663960  -0.000491   0.005243 -29.377500   2.106490  -3.716000 -24.091900   0.001325   0.000979 -16.864300  -0.000828   0.000969 -83.961300  -0.004210   0.000084 -83.961300   0.003419  -0.002772 -62.970900   0.000892   0.003049 -87.691900  -4.998470   0.200681 -87.700700   0.004250  -0.003854 -65.775600   0.004706   0.005750 -88.983800  -9.999880   0.180690 -110.000000   0.002171   0.004023 -80.000000  -0.001377  -0.003574   7.179690   0.566792   6.422010  71.034500  20.648600   0.942406  -2.941110  -3.241240  17.474500 -14.447200 -12.371100  -2.304740 -39.896100  21.348200  56.281500  20.460100  -0.002746  -0.012441   5.230060  -0.003540   0.001415  24.643300   3.728450   8.054560  20.377800   0.053065  -0.040636  14.264400   0.033475  -0.030713  28.384100   0.761319   1.409830  34.994500  -0.012312   0.007131  23.306300   0.002835   0.003147  27.663300   0.743643   1.419240  30.081600  -0.005745   0.005393  20.034300   0.005677   0.007165  33.321800   0.610889   0.930704  49.990100   0.000000   0.002559  33.293400   0.002635   0.005922   3.710890  14.453500   6.290780   1.729860   0.073669   6.899990  -2.672480  -1.013360  -0.085020  -0.000000   0.000000   0.000000   4.448090  14.619700  -3.628190  -0.010313   3.268730 -12.670200  -0.963470  -5.322000  -3.251070  -0.000000   0.000000   0.000000
 -0.606676  89.586100  -0.036516  -1.117090 -14.651000   7.287180   0.604670   8.099450   0.255864   1.190500  16.201100   0.430962  -4.814500  -0.678592  -0.057324  -7.901790  -1.347260   4.853890  -4.740130   0.419871   0.021183 -58.887200   4.177380 -54.443900   9.901400 -25.462800 -120.460000  19.905900 -21.347900 -16.856400  38.824400  33.912900 -76.611700 -22.282700   0.003899   0.001619  -6.141340   0.000000   0.005236 -29.276100   2.067580  -3.646000 -24.006300   0.001359   0.000992 -16.804400  -0.000762   0.000982 -83.369900  -0.004240   0.000000 -83.369900   0.003411  -0.002767 -62.527400   0.000947   0.003050 -87.265800  -4.998440   0.237441 -87.276300   0.004249  -0.003820 -65.457200   0.004701   0.005733 -88.983800  -9.999880   0.180781 -110.000000   0.002143   0.004095 -80.000000  -0.001375  -0.003563   7.206390   0.574591   6.432880  71.053700  20.585000   0.932881  -2.976790  -3.188210  17.504400 -14.467200 -12.404400  -2.293980 -39.906200  21.357700  56.274600  20.446500   0.018837  -0.006943   5.223250   0.016456   0.001652  24.647500   3.729150   8.048670  20.381500   0.078914  -0.087815  14.267100   0.048330  -0.066533  28.384800   0.756213   1.399370  35.025400  -0.014078   0.013715  23.326900   0.002960   0.003594  27.677000   0.738955   1.408540  30.154000  -0.013443   0.014711  20.082600   0.010454   0.013427  33.341200   0.607795   0.923742  50.019200   0.000000   0.002583  33.312800   0.002698   0.005953   3.698750  14.440200   6.293370   1.722000   0.092107   6.895170  -2.666780  -1.030200  -0.085485  -0.000000   0.000000   0.000000   4.434190  14.624300  -3.617830  -0.012978   3.263300 -12.667100  -0.955340  -5.327210  -3.263010  -0.000000   0.000000   0.000000
